<svg width="35" height="38" viewBox="0 0 35 38" fill="none" xmlns="http://www.w3.org/2000/svg">
<path d="M3.85267 23.3601L3.87447 23.3819C3.87623 23.3831 3.87764 23.3847 3.87852 23.3866L17.4994 37.0078L31.1202 23.3869C31.1217 23.3854 31.1242 23.3822 31.1242 23.3822L31.1467 23.3604C33.2295 21.2659 34.5524 18.5353 34.9052 15.6026C35.2579 12.6699 34.6203 9.70341 33.0936 7.17468C31.5669 4.64595 29.2388 2.70007 26.4793 1.64658C23.7198 0.593091 20.6874 0.492139 17.864 1.36008C17.6264 1.43272 17.3725 1.43272 17.1349 1.36008C14.3118 0.492491 11.2795 0.593443 8.52021 1.64711C5.76091 2.70077 3.43303 4.64648 1.90643 7.17503C0.379842 9.70359 -0.257883 12.6699 0.0947476 15.6024C0.447378 18.535 1.77013 21.2656 3.85267 23.3601ZM26.2768 14.378C26.3431 14.3117 26.3957 14.2329 26.4316 14.1464C26.4674 14.0598 26.4859 13.967 26.4859 13.8732C26.4616 11.4692 25.7822 9.11739 24.5208 7.07074C24.4921 7.02431 24.4789 6.96996 24.483 6.91562C24.487 6.86127 24.5082 6.80957 24.5434 6.76788C24.5787 6.7262 24.6262 6.69683 24.6791 6.68381C24.7321 6.6708 24.7878 6.67484 24.8384 6.69542C25.7867 7.0943 26.6482 7.67417 27.3747 8.40246C28.8635 9.8916 29.7005 11.9108 29.7019 14.0166C29.7033 16.1223 28.8688 18.1426 27.3819 19.6335L17.4994 29.5151L7.61744 19.6335C6.13025 18.1428 5.29554 16.1225 5.29695 14.0166C5.29818 11.9108 6.13534 9.8916 7.6243 8.40247C8.35084 7.67417 9.21228 7.09431 10.1604 6.69542C10.2111 6.67485 10.2668 6.6708 10.3198 6.68382C10.3727 6.69683 10.4202 6.72638 10.4555 6.76788C10.4907 6.80957 10.512 6.86127 10.516 6.91579C10.5201 6.97014 10.5069 7.02449 10.4782 7.07092C9.2165 9.1174 8.53674 11.4692 8.51212 13.8732C8.51212 13.967 8.53076 14.0598 8.56682 14.1465C8.60287 14.2332 8.65563 14.3119 8.72211 14.3782L13.3963 19.3361C13.4429 19.3749 13.5015 19.3962 13.5622 19.3962C13.6227 19.3962 13.6814 19.3749 13.7279 19.3361C13.7745 19.2974 13.8058 19.2434 13.8167 19.1838C13.8276 19.1241 13.8172 19.0628 13.7873 19.01C11.9719 15.7248 13.533 11.0061 16.1363 8.40247L16.15 8.38875C16.5093 8.0333 16.9944 7.83404 17.4998 7.83421C18.0052 7.83439 18.4902 8.03401 18.8492 8.38963L18.8618 8.40247C21.4661 11.0061 23.0264 15.7243 21.2107 19.0093C21.1808 19.0621 21.1704 19.1234 21.1813 19.1831C21.1921 19.2427 21.2236 19.2967 21.2701 19.3354C21.3166 19.3742 21.3753 19.3955 21.4358 19.3955C21.4964 19.3955 21.5551 19.3742 21.6016 19.3354L26.2768 14.378Z" fill="#F53838"/>
</svg>
