<svg width="14" height="10" viewBox="0 0 14 10" fill="none" xmlns="http://www.w3.org/2000/svg">
<path d="M5.66642 9.27956C5.53516 9.27983 5.40513 9.25417 5.2838 9.20406C5.16248 9.15395 5.05224 9.08038 4.95942 8.98756L0.717423 4.74456C0.62185 4.65238 0.545591 4.54209 0.493098 4.42013C0.440605 4.29816 0.412927 4.16696 0.41168 4.03418C0.410434 3.9014 0.435643 3.76971 0.485837 3.64678C0.536031 3.52385 0.610204 3.41214 0.70403 3.31819C0.797855 3.22423 0.909453 3.1499 1.03231 3.09953C1.15517 3.04916 1.28683 3.02377 1.41961 3.02482C1.55239 3.02588 1.68363 3.05337 1.80567 3.1057C1.92771 3.15802 2.03811 3.23412 2.13042 3.32956L5.66542 6.86456L12.0304 0.501562C12.2179 0.313921 12.4723 0.208453 12.7376 0.208359C13.0028 0.208265 13.2573 0.313553 13.4449 0.501061C13.6326 0.68857 13.738 0.942938 13.7381 1.20821C13.7382 1.47348 13.6329 1.72792 13.4454 1.91556L6.37342 8.98756C6.2806 9.08038 6.17037 9.15395 6.04904 9.20406C5.92772 9.25417 5.79769 9.27983 5.66642 9.27956Z" fill="#2FAB73"/>
</svg>
